<svg width="86" height="105" viewBox="0 0 86 105" fill="none" xmlns="http://www.w3.org/2000/svg">
<path d="M67.5937 47.7622C69.3229 47.9282 71.1979 47.7102 73.2187 47.1052C75.3437 46.7099 76.7187 47.4282 77.3437 49.2622C75.6563 50.2832 73.7083 50.6472 71.5 50.3552C70.9583 50.6472 70.3125 50.7932 69.5625 50.7932L67.1563 51.6372L66.9375 53.1682V65.5122L67.1563 67.8872V73.0742C67.1979 74.0532 67.125 75.2832 66.9375 76.7622V81.1052C66.9792 81.7512 66.9063 82.5432 66.7187 83.4812L66.9375 84.9812L66.7187 85.4182V94.0742C66.5937 94.7202 66.5937 95.4492 66.7187 96.2622C66.6146 96.8662 66.6146 97.5852 66.7187 98.4182V99.0742L66.9375 99.4812H71.9375L72.5937 99.2932H78.2187C79.3646 99.3972 80.5833 99.3242 81.875 99.0742H82.75C83.375 99.0742 84.0937 99.0012 84.9063 98.8552C85.3437 99.6052 85.4896 100.543 85.3437 101.668L81.875 101.887H81.25C81.0208 101.887 80.8021 101.96 80.5937 102.105H74.3125L73.4375 102.324H71.7187C71.0937 102.137 70.375 102.064 69.5625 102.105C68.75 102.314 67.8021 102.387 66.7187 102.324L61.9687 102.512L61.5313 102.324H60.875L57 102.731L56.3437 102.949C56.1979 102.928 56.0521 103.001 55.9063 103.168C55.0104 103.21 54 103.428 52.875 103.824C52 103.97 50.9896 104.043 49.8437 104.043H48.3437C47.4271 103.46 46.9896 102.595 47.0313 101.449C48.0729 101.22 49.375 101.147 50.9375 101.231H51.5625L52 101.012H52.6563L54.4063 100.574C54.6146 100.574 54.8229 100.501 55.0313 100.355C55.9063 100.314 56.9167 100.095 58.0625 99.6992L58.7187 99.4812C58.6563 98.7722 58.3646 97.9812 57.8437 97.1052C57.8229 96.1472 57.8958 94.9912 58.0625 93.6372V92.3552L58.2813 90.8242V90.1992C58.3229 89.4702 58.4687 88.6682 58.7187 87.7932L58.9375 84.9812L59.1563 84.1372V82.8242C59.3646 81.4912 59.4375 79.8352 59.375 77.8552C59.3333 77.1892 59.4063 76.3872 59.5937 75.4492V73.2932L59.8125 71.7932V70.9182C59.625 69.7312 59.5521 68.2832 59.5937 66.5742V65.9492C59.8437 65.2622 59.8437 64.3872 59.5937 63.3242L59.8125 62.6992V56.1992C59.8333 55.4082 59.7604 54.6162 59.5937 53.8242C59.6979 53.3872 59.7708 52.8032 59.8125 52.0742L58.7187 51.6372L55.25 52.0742H54.5937C54.3854 52.0742 54.1771 52.1472 53.9687 52.2932H51.7813L51.1563 52.5122H50.5L49.625 52.7312H48.3437L45.7187 52.5122H44.875C44.5 52.1162 44.2083 51.5432 44 50.7932C44.0417 50.3552 44.2604 49.8452 44.6563 49.2622C46.2396 49.6992 48.0417 49.7722 50.0625 49.4812H52.2187L52.6563 49.2622L55.25 49.0432L58.7187 48.8242L59.375 48.6052L64.3437 48.1682C64.5729 48.1682 64.7917 48.0952 65 47.9492C65.7292 48.0742 66.5937 48.0122 67.5937 47.7622ZM64.125 64.1992C62.8958 64.0952 62.3958 63.3032 62.625 61.8242C63.9583 61.9702 64.4583 62.7622 64.125 64.1992ZM64.3437 73.7312C63.0937 73.4812 62.7396 72.6162 63.2813 71.1372C64.6146 71.5332 64.9687 72.3972 64.3437 73.7312ZM61.75 91.6992L62.4063 90.8242C62.8646 91.2202 63.3646 91.7312 63.9063 92.3552C63.0521 94.0222 62.3333 93.8032 61.75 91.6992Z" fill="#9CBEB1"/>
<path d="M2.63521 48.625C4.34354 48.708 6.47896 48.5 9.04141 48C9.89561 48.25 10.6769 48.75 11.3852 49.5C11.3852 50.271 11.5935 51.115 12.0102 52.031V52.688C12.0935 53.146 12.2394 53.646 12.4477 54.188C12.3644 54.917 12.4998 55.688 12.854 56.5C12.7498 57.5 12.8956 58.573 13.2914 59.719V61.406C13.2498 61.615 13.3227 61.833 13.5102 62.062V66.094C13.5727 66.615 13.5727 67.25 13.5102 68C13.656 69 13.729 70.208 13.729 71.625V73.75C15.4998 73.583 17.1977 72.802 18.8227 71.406C19.3852 71.344 19.9581 71.062 20.5414 70.562C26.2498 68.188 30.9998 64 34.7914 58C34.9998 57.146 35.1456 56.156 35.229 55.031C35.9373 54.073 36.4269 52.865 36.6977 51.406C37.0519 50.76 37.3435 49.979 37.5727 49.062C38.1769 48.708 38.8123 48.854 39.479 49.5C39.479 50.271 39.3331 51.115 39.0414 52.031L37.354 56.719C37.354 57.427 37.2081 58.208 36.9164 59.062L36.6977 60.344C36.4269 60.906 36.1456 61.615 35.854 62.469C35.2914 62.656 34.656 62.938 33.9477 63.312C30.5727 68.042 25.7498 71.74 19.479 74.406C19.0831 74.781 18.5102 75.135 17.7602 75.469C17.9685 76.24 18.3227 77.021 18.8227 77.812L21.1664 79.938L21.3852 80.344L21.8227 80.781L22.229 81L23.0727 82.281L23.5102 82.688L25.0102 84.188L25.4164 84.812L25.854 85.469C26.2706 85.927 26.8435 86.417 27.5727 86.938L27.7602 87.375L28.1977 87.594L29.0414 88.875L29.479 89.094L29.6977 89.5C29.7185 89.646 29.854 89.792 30.104 89.938C30.2081 90.25 30.4269 90.531 30.7602 90.781L32.4477 93.75L33.5102 95.031C33.5935 95.281 33.7394 95.5 33.9477 95.688C34.4477 96.604 34.8019 97.74 35.0102 99.094C34.4685 99.865 33.6873 100.146 32.6664 99.938C32.0623 98.833 31.5623 97.49 31.1664 95.906C30.5623 94.656 29.5727 93.302 28.1977 91.844C27.781 90.969 27.1456 90.115 26.2914 89.281L25.229 88.031L25.0102 87.375C24.4685 87.021 23.9685 86.521 23.5102 85.875L22.8852 85.25L22.4477 84.625L21.8227 84.188C21.4894 83.646 20.9894 83.146 20.3227 82.688C19.5102 81.417 18.3019 80.146 16.6977 78.875L16.2602 78.219L15.6352 78L15.1977 77.375L14.5727 77.156L13.729 77.812C13.979 79.292 13.906 81.135 13.5102 83.344V86.938L13.0727 89.281V93.344L12.854 94.625C12.979 95.604 12.9164 96.802 12.6664 98.219L13.0727 102.062L12.854 103.562C11.9373 103.562 10.8019 103.771 9.44771 104.188L7.76021 104.406C1.26021 106.177 -1.15646 103.906 0.510205 97.594C1.05188 95.823 1.27063 93.698 1.16646 91.219L1.38521 90.344L1.16646 89.938L1.38521 89.094V83.969L1.79146 81.625V78.875L2.01021 75.25V74.188C2.19771 73.083 2.12479 71.875 1.79146 70.562V67.156C1.83313 66.51 1.76021 65.802 1.57271 65.031V62.688L1.38521 62.062C1.44771 61.312 1.37479 60.531 1.16646 59.719V58.219L0.947705 57.375C1.11438 56.271 1.04146 55.062 0.728955 53.75V52.469C0.874785 51.802 0.947705 50.948 0.947705 49.906L1.16646 49.5L2.63521 48.625Z" fill="#C75940"/>
<path d="M61.5428 35.1121V37.6154C61.5428 39.6863 59.4948 39.2987 58.3883 40.003C57.0295 40.8676 55.2325 40.554 53.7363 40.554C53.2566 40.554 52.9404 40.6839 52.5134 40.9215C51.4915 41.4896 50.4169 41.6706 49.3062 41.9009C46.1725 42.5498 43.0874 42.5132 39.908 42.5132C38.4562 42.5132 37.0156 42.6356 35.5611 42.6356C33.9401 42.6356 32.3539 42.3487 30.7482 42.0914C28.6753 41.7589 26.3763 42.0074 24.2979 42.173C22.8586 42.2877 21.5081 42.7064 20.1159 42.9962C19.7956 43.063 19.4989 42.2329 19.4393 41.969C19.3519 41.5785 19.1134 40.9391 19.094 40.554C19.0178 38.9714 19.094 37.3573 19.094 35.772C19.094 32.3838 17.7282 29.4702 17.0391 26.2283C16.5857 24.0948 15.8619 22.0427 15.3766 19.9157C15.005 18.2959 14.7485 16.5054 14.6043 14.841C14.4753 13.3747 14.1412 11.9339 13.9151 10.4875C13.5338 8.06143 13 5.69056 13 3.20899C13 2.54018 13.5796 3.06963 13.9623 3.21579C14.9246 3.58295 15.9465 5.17355 16.4637 6.0728C17.5549 7.9706 18.8694 9.68634 20.2712 11.2902C21.2557 12.419 22.0183 13.5906 22.6284 15.0247C23.348 16.7128 24.467 18.028 25.5333 19.4258C26.802 21.0899 27.8447 22.8703 28.99 24.6364C29.1093 24.82 29.4435 25.8207 29.4656 25.3711C29.4753 25.1684 29.6362 25.0136 29.6736 24.8202C29.7527 24.4164 29.7859 24.0832 29.7859 23.6569C29.7859 22.6218 29.5724 21.6158 29.5724 20.5823C29.5724 18.9018 29.6043 17.1822 30.0605 15.5689C30.4695 14.121 31.2627 12.851 31.7105 11.4127C32.1861 9.88835 32.6811 8.34118 33.2676 6.86867C34.0219 4.97544 35.2089 3.18741 36.3916 1.61723C36.576 1.37256 37.4731 -0.219149 37.6992 0.0254731C38.2205 0.59185 38.38 1.29702 38.7141 1.97776C39.1897 2.94596 39.5059 3.93675 40.0979 4.85517C41.4914 7.01356 42.7616 9.10094 43.5145 11.6848C44.083 13.6382 44.6834 15.5815 45.2546 17.5349C45.776 19.319 46.2211 21.1887 46.888 22.9087C46.9255 23.0057 47.3886 24.414 47.4524 24.2692C47.8614 23.3322 48.2677 22.48 48.8126 21.6366C49.9371 19.8987 51.3639 18.3875 52.6437 16.8001C54.1939 14.879 55.5361 12.7772 57.0517 10.8277C58.545 8.90576 59.7083 6.69953 61.3348 4.90959C61.9879 4.18985 62.5994 3.36087 63.3661 2.78724C63.7045 2.53331 63.771 2.6218 63.8709 2.99131C64.2716 4.4721 64.1814 6.14927 64.4227 7.67135C64.499 8.14494 64.4296 8.72733 64.4296 9.20189C64.4296 10.6751 64.3173 12.1095 64.6959 13.501C65.2935 15.6872 64.9455 18.3893 64.2147 20.5007C63.7183 21.9383 63.1457 23.375 62.9377 24.9154C62.8351 25.6867 62.6215 26.4366 62.5286 27.2078C62.4288 28.0223 62.4025 28.8479 62.2375 29.6498C61.8617 31.4644 61.5428 33.2424 61.5428 35.1121Z" fill="#D9AA64"/>
</svg>
